<svg version="1.1" id="Layer_1" xmlns="http://www.w3.org/2000/svg" xmlns:xlink="http://www.w3.org/1999/xlink" x="0px" y="0px"
	 width="100%" viewBox="0 0 432 416" enable-background="new 0 0 432 416" xml:space="preserve">
<path fill="#000000" opacity="1.000000" stroke="none" 
	d="
M50.379585,205.450882 
	C45.593933,187.532242 47.347557,170.563492 54.623013,153.944168 
	C58.259148,145.638138 63.859928,138.913025 70.480408,133.008728 
	C74.667130,129.274902 76.996971,125.049675 77.956078,119.441223 
	C82.786362,91.195930 98.726364,72.518349 126.480682,64.357033 
	C129.642258,63.427353 132.018570,61.762379 133.548859,58.588364 
	C142.276352,40.486416 157.798386,32.365555 176.847321,29.773998 
	C182.099884,29.059401 187.371979,28.843708 192.765839,29.410372 
	C201.325378,30.309616 209.001999,32.896519 215.633408,38.387394 
	C217.622116,40.034065 219.227112,40.738853 221.689102,38.759304 
	C234.523544,28.439766 249.255402,27.072056 264.731842,30.433821 
	C282.036774,34.192764 296.582214,42.095718 305.159363,58.521980 
	C306.639313,61.356258 309.210632,62.801380 312.175323,63.755241 
	C321.455963,66.741196 330.032196,71.064896 337.632812,77.248360 
	C349.805145,87.151154 355.723541,100.475403 358.244049,115.500740 
	C359.279175,121.671608 361.414673,126.753670 366.430573,130.858749 
	C387.976807,148.492523 393.159515,171.999191 389.793243,198.283447 
	C389.135529,203.418854 389.450928,207.883240 391.922791,212.658356 
	C404.388550,236.739273 402.107361,259.887268 386.259674,281.655731 
	C383.429871,285.542816 382.267426,289.325928 382.268127,294.046204 
	C382.272461,323.074036 368.631866,343.409180 341.843597,354.603027 
	C339.669312,355.511597 338.391541,356.991852 337.313568,358.954712 
	C327.413605,376.981720 312.445251,387.177246 291.667511,388.233643 
	C289.343414,388.351807 287.598175,389.542786 285.729858,390.611755 
	C273.077606,397.851013 259.582947,400.127380 245.274429,397.356049 
	C235.847672,395.530212 229.331848,389.513306 223.742676,382.184479 
	C218.961731,375.915405 218.385101,375.667511 213.876434,382.174561 
	C200.402328,401.620850 174.568741,401.949646 155.126404,392.938965 
	C147.281998,389.303436 139.736496,385.766510 131.113052,383.947968 
	C117.548096,381.087433 107.715126,372.260132 100.859665,360.386658 
	C98.277451,355.914337 95.109955,353.014252 90.071877,351.624054 
	C82.071472,349.416443 75.952377,344.426117 71.160889,337.655884 
	C61.746559,324.353729 54.546642,310.346985 55.721092,293.342285 
	C56.030540,288.861816 53.048294,285.444489 50.748062,282.123596 
	C35.436623,260.018005 35.795853,237.079056 46.554268,213.453659 
	C47.727291,210.877731 49.026970,208.359482 50.379585,205.450882 
M276.852722,68.100639 
	C280.875000,67.047081 284.893890,65.980324 288.920502,64.943588 
	C293.178925,63.847164 293.849579,62.276279 291.221649,58.690395 
	C289.756104,56.690605 288.050629,54.781631 286.145935,53.202408 
	C273.416473,42.648216 258.591766,39.228642 242.595352,41.896122 
	C230.103729,43.979164 223.766418,52.602802 224.488876,65.360748 
	C224.970505,73.866089 224.838882,82.333939 224.553513,90.829224 
	C224.324219,97.654411 224.415512,104.492241 224.457779,111.323875 
	C224.477722,114.545738 225.659225,116.677376 229.452606,116.726448 
	C247.948273,116.965668 263.910309,123.472191 277.108582,136.488129 
	C279.663849,139.008118 281.880249,138.862183 284.487335,136.654022 
	C289.620361,132.306473 294.167389,127.521828 297.274078,121.462265 
	C298.637878,118.802231 300.121185,116.166534 301.869629,113.750969 
	C303.651794,111.288765 306.304718,110.794968 309.017731,112.094536 
	C311.696899,113.377899 312.151306,115.752823 311.504730,118.463326 
	C310.605164,122.234642 308.899109,125.647163 306.939178,128.958694 
	C303.047699,135.533875 297.608948,140.657593 291.598969,145.213531 
	C288.597748,147.488663 287.732941,149.810013 290.033417,153.226288 
	C291.787262,155.830780 293.073334,158.781082 294.337555,161.677917 
	C296.767181,167.245209 296.048767,169.817490 291.035767,173.085999 
	C279.455322,180.636520 267.320862,187.293961 255.879013,195.088577 
	C250.417480,198.809143 245.854523,197.185699 242.661972,191.302200 
	C233.786423,174.945602 210.303329,173.802902 199.912125,189.245392 
	C189.864044,204.177979 192.024277,224.763107 201.066971,237.891281 
	C206.496979,245.774582 214.614304,249.357285 224.572784,247.827499 
	C232.734833,246.573685 238.650269,242.728165 242.449265,235.130875 
	C245.812592,228.404831 248.942169,227.932846 255.288162,231.642059 
	C266.226807,238.035675 277.602112,243.599319 289.037964,249.034454 
	C296.481110,252.571945 297.765717,255.112228 294.552704,262.835663 
	C283.089661,290.390289 263.227966,306.942688 232.749039,309.271698 
	C226.963211,309.713806 225.465729,311.210327 225.253403,316.952515 
	C224.939468,325.442352 224.748962,333.937531 224.355682,342.423431 
	C223.883026,352.621796 225.821472,362.297333 230.201080,371.502716 
	C232.252731,375.815063 234.877792,379.906830 239.368851,381.699615 
	C252.716644,387.027863 266.164520,388.259796 279.291321,380.872833 
	C283.110046,378.723907 286.971130,377.105133 291.403442,376.556183 
	C298.382751,375.691803 305.095978,373.669861 311.290436,370.240173 
	C317.211151,366.962006 321.691223,362.336853 324.700409,356.419983 
	C322.500153,354.380310 320.466309,354.494446 318.489441,354.261261 
	C302.949860,352.428131 290.431946,345.297638 281.070618,332.726105 
	C278.804413,329.682739 277.526062,326.338043 280.778717,323.315186 
	C284.028229,320.295258 286.978363,322.379791 289.561310,324.713593 
	C293.144470,327.951141 296.387634,331.606201 300.182709,334.560486 
	C313.358826,344.817505 328.302917,347.214233 343.461060,340.860870 
	C360.001526,333.928101 367.772980,319.726227 369.652222,302.366302 
	C370.424774,295.229706 368.607727,294.084747 362.020020,296.697205 
	C348.557159,302.036072 335.597015,300.243073 322.830444,294.435852 
	C320.511932,293.381256 318.474213,291.970490 317.398987,289.520721 
	C316.533051,287.547729 316.459351,285.595581 317.914825,283.888062 
	C319.398560,282.147339 321.360504,282.000183 323.396790,282.721741 
	C324.490692,283.109314 325.506012,283.712738 326.581238,284.160004 
	C342.853424,290.929016 358.626984,291.311829 372.295135,278.677368 
	C385.376587,266.585266 388.893829,250.810638 386.111298,233.806152 
	C383.348999,216.925049 376.370941,210.551666 359.224792,207.101486 
	C358.736786,207.003296 358.252289,206.871872 357.779907,206.714630 
	C354.820892,205.729599 352.684082,203.878738 352.926483,200.580551 
	C353.181641,197.109421 355.834106,195.970688 358.895752,195.720444 
	C363.465546,195.346909 367.807343,196.292084 372.075836,197.943741 
	C376.541656,199.671722 378.377075,198.516434 378.692688,193.851547 
	C379.131653,187.362503 379.480194,180.823212 378.612885,174.376862 
	C377.091492,163.069672 372.954224,152.819260 364.917480,144.453659 
	C360.606293,139.966049 359.310455,140.348068 357.266296,146.089081 
	C355.760040,150.319366 354.182678,154.549911 352.260773,158.601898 
	C345.967407,171.870529 335.587616,180.847122 322.194580,186.495056 
	C318.605438,188.008636 315.028107,187.992020 313.225891,183.975967 
	C311.532867,180.203278 313.652252,177.635315 317.104950,176.027847 
	C328.992188,170.493469 336.651184,160.801346 342.983032,149.778259 
	C356.857666,125.624054 344.413330,86.917664 315.621643,77.931900 
	C300.388092,73.177567 277.440430,74.869278 265.593445,91.607346 
	C264.448486,93.225014 263.055695,94.724770 261.553497,96.018669 
	C259.274200,97.981903 256.631653,99.184807 253.895798,96.920204 
	C251.116455,94.619637 251.166046,91.723068 252.981842,88.850128 
	C258.706757,79.792229 265.703888,72.146255 276.852722,68.100639 
M211.838455,109.337051 
	C211.787247,94.171829 211.869720,79.004601 211.642563,63.842010 
	C211.460800,51.709503 204.108032,42.862530 192.874405,41.539009 
	C181.380920,40.184875 170.244370,41.956051 159.901718,47.383099 
	C154.837921,50.040207 150.362350,53.526161 147.280502,58.485722 
	C144.460281,63.024223 144.941376,64.416412 150.144302,65.772453 
	C161.745758,68.796135 170.910446,75.367683 178.193848,84.713234 
	C182.741714,90.548767 183.206558,94.020981 180.000412,96.501289 
	C176.859146,98.931374 174.021820,97.961967 169.196121,92.608307 
	C163.891068,86.722839 158.228378,81.330002 150.262390,79.317169 
	C117.111458,70.940681 97.077568,90.457352 88.634087,119.388092 
	C87.671768,122.685356 89.394684,124.108543 92.765892,123.368706 
	C94.229088,123.047607 95.677902,122.637314 97.154991,122.406891 
	C112.076859,120.079132 125.553749,123.544937 137.644669,132.550903 
	C140.432983,134.627777 141.509415,137.350449 139.729752,140.379120 
	C137.929092,143.443497 134.901276,142.902344 132.160416,141.745743 
	C128.478928,140.192230 124.945343,138.285065 121.252029,136.763306 
	C112.246933,133.052933 102.902802,131.686203 93.394630,134.218994 
	C69.409103,140.608353 55.150616,167.960785 59.631844,192.859329 
	C60.241711,196.247849 62.570404,197.867599 65.896484,196.430984 
	C79.286461,190.647552 94.913307,188.174927 101.838356,172.611313 
	C102.035355,172.168564 102.412994,171.792450 102.753616,171.429596 
	C104.742798,169.310486 106.990913,168.047638 109.811081,169.826157 
	C112.516602,171.532364 112.818214,174.171951 111.853722,176.878891 
	C110.786133,179.875107 108.890038,182.446228 106.939713,184.958359 
	C98.411011,195.943771 86.975098,202.381775 73.828331,206.103714 
	C66.566772,208.159500 61.251915,212.640030 57.099201,218.799469 
	C48.277622,231.883972 47.792992,245.702301 52.692871,260.320343 
	C58.739075,278.358307 68.721893,285.590118 87.776588,284.879486 
	C96.488853,284.554596 104.253456,281.129425 111.785927,277.082916 
	C114.834785,275.445068 117.960403,274.698120 120.186195,278.076202 
	C122.490578,281.573486 120.228828,284.173096 117.526756,286.076202 
	C114.819084,287.983307 111.882111,289.627045 108.886810,291.052399 
	C97.657616,296.396149 85.958305,297.509369 73.812134,294.822998 
	C68.242958,293.591278 66.686012,294.943298 67.100349,300.594116 
	C67.827667,310.513367 71.667320,319.341614 77.576851,327.188629 
	C89.267387,342.712097 106.629021,343.987396 120.803917,330.616333 
	C126.438606,325.301147 130.543518,318.822968 134.926590,312.534912 
	C140.342087,304.765656 146.971954,298.328674 155.725311,294.317841 
	C160.991531,291.904816 161.608994,289.080444 157.361786,284.813721 
	C147.463959,274.870483 141.420609,262.757019 136.892014,249.721191 
	C136.291458,247.992493 135.662659,246.272583 135.000595,244.566589 
	C134.366119,242.931656 133.302917,241.656937 131.521790,241.266464 
	C117.368462,238.163635 103.408821,236.063904 92.130951,248.587936 
	C90.132790,250.806900 87.596283,252.533875 84.713142,250.331635 
	C81.687546,248.020569 82.594604,244.998581 84.279648,242.264038 
	C87.842766,236.481613 93.176170,232.926147 99.408295,230.560699 
	C107.550850,227.470139 116.034431,227.469421 124.556976,227.743652 
	C130.160400,227.923965 131.309326,227.009811 130.515564,221.532532 
	C129.226440,212.636902 130.346115,203.923447 131.681000,195.199738 
	C137.881332,154.679581 166.306107,124.785263 205.467728,117.995628 
	C210.509018,117.121605 212.657745,115.290184 211.838455,109.337051 
M242.161728,172.281006 
	C246.242676,174.924545 248.504379,179.438324 252.138306,182.480759 
	C261.427399,176.595993 270.394348,170.865021 279.421326,165.230240 
	C281.821106,163.732254 281.933472,162.027206 280.615265,159.789276 
	C273.865540,148.330292 265.127380,138.906082 252.819305,133.376282 
	C216.949570,117.260658 172.585114,132.663132 153.862640,167.516479 
	C144.169754,185.560516 141.138092,204.708466 143.112000,224.972397 
	C145.490448,249.389114 156.432480,269.154266 175.448227,284.169128 
	C194.780777,299.434113 217.021439,301.735443 240.312607,295.947052 
	C258.313293,291.473480 272.199249,281.347778 280.892548,264.575195 
	C282.687531,261.112030 282.663635,258.961060 278.792755,257.071808 
	C271.164764,253.348801 263.623383,249.423737 256.228851,245.257965 
	C252.765762,243.307022 250.979340,243.994720 248.476181,247.032928 
	C232.056229,266.962494 203.135071,265.591736 189.244247,244.435791 
	C177.802017,227.009094 178.287903,198.444641 190.316071,181.425613 
	C202.842621,163.701431 224.657150,159.618073 242.161728,172.281006 
M175.016266,385.400391 
	C177.176788,385.473907 179.344772,385.701324 181.496643,385.596771 
	C199.601059,384.716888 206.750549,378.718872 209.651672,360.870819 
	C212.191666,345.244507 211.202621,329.328796 212.649597,313.594086 
	C212.921280,310.639862 211.260666,309.534180 208.471695,309.221741 
	C197.439789,307.985840 187.009903,304.683319 177.157257,299.597595 
	C174.552063,298.252838 172.164291,298.305939 169.565857,299.624634 
	C159.944412,304.507385 151.409332,310.576355 144.995789,319.529114 
	C136.250977,331.736145 127.302376,343.844360 112.676819,349.866608 
	C109.682388,351.099609 109.779655,353.268646 111.625473,355.456848 
	C115.066139,359.535828 118.654274,363.482483 123.303497,366.263702 
	C130.078400,370.316437 137.157654,371.522186 144.812027,368.925690 
	C155.477142,365.307892 162.662598,357.673615 168.781677,348.711334 
	C170.183334,346.658386 171.504272,344.497620 173.209518,342.719360 
	C174.963211,340.890594 177.288422,340.428589 179.567535,341.988831 
	C181.731476,343.470245 182.537766,345.511505 181.610840,348.071960 
	C181.158081,349.322601 180.695892,350.571533 180.184402,351.798920 
	C175.751587,362.435760 167.570526,369.562500 158.064423,375.471558 
	C156.569275,376.400909 154.363831,377.129120 154.703720,379.345764 
	C155.030701,381.478302 157.289429,381.748474 158.987320,382.274872 
	C163.923996,383.805420 168.979034,384.802307 175.016266,385.400391 
z"/>
<path fill="#000000" opacity="1.000000" stroke="none" 
	d="
M339.603485,257.474670 
	C334.454742,247.681747 329.404480,238.373428 319.153809,233.304321 
	C313.143677,230.332230 307.074921,227.825562 300.323273,227.275162 
	C296.191376,226.938324 293.231079,225.062668 293.151306,220.579910 
	C293.085541,216.883469 296.976776,214.107300 301.555908,214.916153 
	C322.280792,218.576920 338.210297,229.014801 347.655945,248.306198 
	C348.235535,249.489960 348.682526,250.774277 348.963043,252.061523 
	C349.559906,254.800842 349.393799,257.502228 346.858612,259.234924 
	C344.155640,261.082336 341.826233,259.937042 339.603485,257.474670 
z"/>
</svg>